<?xml version="1.0" encoding="UTF-8" standalone="no"?>
<svg
   width="22"
   height="22"
   version="1.1"
   id="svg6"
   sodipodi:docname="kdeconnect-symbolic.svg"
   inkscape:version="1.3.2 (091e20ef0f, 2023-11-25)"
   xmlns:inkscape="http://www.inkscape.org/namespaces/inkscape"
   xmlns:sodipodi="http://sodipodi.sourceforge.net/DTD/sodipodi-0.dtd"
   xmlns="http://www.w3.org/2000/svg"
   xmlns:svg="http://www.w3.org/2000/svg">
  <defs
     id="defs10" />
  <sodipodi:namedview
     id="namedview8"
     pagecolor="#ffffff"
     bordercolor="#000000"
     borderopacity="0.25"
     inkscape:showpageshadow="2"
     inkscape:pageopacity="0.0"
     inkscape:pagecheckerboard="0"
     inkscape:deskcolor="#d1d1d1"
     showgrid="false"
     inkscape:zoom="12.901634"
     inkscape:cx="-6.8983512"
     inkscape:cy="13.951722"
     inkscape:window-width="1536"
     inkscape:window-height="812"
     inkscape:window-x="0"
     inkscape:window-y="0"
     inkscape:window-maximized="1"
     inkscape:current-layer="g1" />
  <style
     type="text/css"
     id="current-color-scheme">.ColorScheme-Text { color:#31363b; }
.ColorScheme-Background { color:#eff0f1; }
.ColorScheme-Highlight { color:#3daee9; }
.ColorScheme-ButtonText { color:#31363b; }
</style>
  <g
     id="22-22-kdeconnect"
     transform="translate(-356,-534.36218)">
    <g
       id="g1">
      <path
         d="m 362.68182,554.86218 q -0.7125,0 -1.21988,-0.50739 -0.50739,-0.50738 -0.50739,-1.21988 v -15.54546 q 0,-0.7125 0.50739,-1.21988 0.50738,-0.50739 1.21988,-0.50739 h 8.63637 q 0.71249,0 1.21988,0.50739 0.50738,0.50738 0.50738,1.21988 v 15.54546 q 0,0.7125 -0.50738,1.21988 -0.50739,0.50739 -1.21988,0.50739 z m 0,-2.59091 v 0.86364 h 8.63637 v -0.86364 z m 0,-1.72727 h 8.63637 v -10.36364 h -8.63637 z m 0,-12.09091 h 8.63637 v -0.86364 h -8.63637 z m 0,0 v -0.86364 z m 0,13.81818 v 0.86364 z"
         id="path1"
         style="fill:currentColor"
         class="ColorScheme-Text" />
      <path
         d="m 367.875,541.86218 h 0.875 m -2.1875,0 -0.24267,0.96899 c -0.22062,0.0588 -0.43261,0.14613 -0.63062,0.25977 l -0.85449,-0.5127 -0.61866,0.61866 0.5127,0.85449 c -0.11496,0.19838 -0.20344,0.41096 -0.26318,0.63232 l -0.96557,0.24097 v 0.875 l 0.96899,0.24267 c 0.0588,0.22062 0.14613,0.4326 0.25977,0.63062 l -0.5127,0.85449 0.61866,0.61866 0.85449,-0.5127 c 0.19837,0.11496 0.41096,0.20344 0.63232,0.26318 l 0.24097,0.96558 h 0.875 l 0.24266,-0.96899 c 0.22062,-0.0588 0.4326,-0.14613 0.63063,-0.25977 l 0.85449,0.5127 0.61865,-0.61866 -0.5127,-0.85449 c 0.11496,-0.19838 0.20344,-0.41096 0.26318,-0.63232 L 370.5,545.79968 v -0.875 l -0.969,-0.24267 c -0.0588,-0.22062 -0.14613,-0.43261 -0.25977,-0.63062 l 0.51269,-0.85449 -0.61865,-0.61866 -0.85449,0.5127 c -0.19837,-0.11496 -0.41095,-0.20344 -0.63231,-0.26318 l -0.24097,-0.96558 z m 0.4375,1.75 c 0.0582,-4e-5 0.11639,0.003 0.17432,0.009 0.0579,0.005 0.11553,0.0143 0.1726,0.0256 0.0577,0.0119 0.11471,0.0268 0.1709,0.0444 0.0557,0.0172 0.11041,0.0372 0.16407,0.0598 0.0536,0.0224 0.10609,0.0475 0.15722,0.0752 0.0511,0.0283 0.10068,0.0591 0.14868,0.0923 0.0485,0.033 0.0952,0.0683 0.14013,0.10595 0.0447,0.0377 0.0875,0.0776 0.12818,0.11963 0.0402,0.0414 0.0785,0.0847 0.1145,0.12989 0.0366,0.0461 0.0708,0.094 0.10254,0.14355 0.0316,0.0492 0.0606,0.1 0.0872,0.1521 0.026,0.0518 0.0494,0.10483 0.0701,0.15893 0.0215,0.0543 0.0403,0.10961 0.0564,0.16577 0.0154,0.0563 0.0279,0.11335 0.0376,0.17091 0.01,0.0578 0.0166,0.1159 0.0205,0.17431 0.003,0.041 0.005,0.082 0.005,0.12301 5e-5,0.0582 -0.003,0.11639 -0.009,0.17432 -0.006,0.0579 -0.0143,0.11553 -0.0256,0.1726 -0.0119,0.0577 -0.0268,0.11472 -0.0444,0.17091 -0.0172,0.0557 -0.0372,0.1104 -0.0598,0.16406 -0.0224,0.0536 -0.0475,0.10609 -0.0752,0.15722 -0.0283,0.0511 -0.0591,0.10069 -0.0923,0.14869 -0.033,0.0485 -0.0683,0.0952 -0.10595,0.14013 -0.0377,0.0447 -0.0776,0.0875 -0.11963,0.12818 -0.0414,0.0403 -0.0847,0.0785 -0.12988,0.1145 -0.0461,0.0366 -0.094,0.0708 -0.14356,0.10253 -0.0492,0.0316 -0.1,0.0606 -0.1521,0.0872 -0.0518,0.026 -0.10484,0.0494 -0.15893,0.0701 -0.0543,0.0215 -0.10961,0.0403 -0.16578,0.0564 -0.0563,0.0154 -0.11333,0.0279 -0.1709,0.0376 -0.0577,0.01 -0.1159,0.0166 -0.17432,0.0205 -0.0244,0.004 -0.0489,0.006 -0.0735,0.009 h -0.11959 c -0.0348,-0.002 -0.0696,-0.004 -0.10425,-0.009 -0.0579,-0.005 -0.11554,-0.0143 -0.17261,-0.0256 -0.0577,-0.0119 -0.11472,-0.0268 -0.1709,-0.0444 -0.0557,-0.0172 -0.11041,-0.0372 -0.16406,-0.0599 -0.0536,-0.0224 -0.1061,-0.0475 -0.15723,-0.0752 -0.0511,-0.0283 -0.10069,-0.0591 -0.14868,-0.0923 -0.0485,-0.033 -0.0952,-0.0683 -0.14014,-0.10596 -0.0263,-0.0232 -0.052,-0.0471 -0.0769,-0.0718 l -0.0769,-0.0769 c -0.0309,-0.0325 -0.0606,-0.0661 -0.0889,-0.10083 -0.0366,-0.0461 -0.0708,-0.094 -0.10254,-0.14356 -0.0316,-0.0492 -0.0606,-0.1 -0.0872,-0.15209 -0.026,-0.0518 -0.0494,-0.10484 -0.0701,-0.15894 -0.0215,-0.0543 -0.0404,-0.10961 -0.0564,-0.16577 -0.0154,-0.0563 -0.0279,-0.11334 -0.0376,-0.1709 -0.01,-0.0578 -0.0166,-0.1159 -0.0205,-0.17432 -0.004,-0.041 -0.005,-0.082 -0.005,-0.12304 -5e-5,-0.0582 0.003,-0.11639 0.009,-0.17432 0.005,-0.0579 0.0143,-0.11553 0.0256,-0.17261 0.0119,-0.0577 0.0268,-0.11471 0.0444,-0.17089 0.0172,-0.0557 0.0372,-0.11041 0.0599,-0.16407 0.0224,-0.0536 0.0475,-0.1061 0.0752,-0.15723 0.0283,-0.0511 0.0591,-0.10068 0.0923,-0.14868 0.033,-0.0485 0.0683,-0.0952 0.10595,-0.14014 0.0377,-0.0447 0.0776,-0.0875 0.11963,-0.12817 0.0414,-0.0403 0.0847,-0.0785 0.12989,-0.1145 0.0461,-0.0366 0.094,-0.0708 0.14355,-0.10254 0.0492,-0.0316 0.1,-0.0606 0.1521,-0.0871 0.0518,-0.026 0.10484,-0.0494 0.15894,-0.0701 0.0542,-0.0215 0.10961,-0.0403 0.16577,-0.0563 0.0564,-0.0154 0.11334,-0.0279 0.1709,-0.0376 0.0577,-0.01 0.1159,-0.0166 0.17431,-0.0205 0.0409,-0.004 0.082,-0.007 0.12305,-0.009 z"
         style="fill:currentColor"
         id="path1-6"
         class="ColorScheme-Text" />
    </g>
  </g>
</svg>
