<?xml version="1.0" encoding="UTF-8" standalone="no"?>
<svg
   viewBox="0 0 22 22"
   version="1.1"
   id="svg1"
   sodipodi:docname="desktop.svg"
   inkscape:version="1.3.2 (091e20ef0f, 2023-11-25)"
   xmlns:inkscape="http://www.inkscape.org/namespaces/inkscape"
   xmlns:sodipodi="http://sodipodi.sourceforge.net/DTD/sodipodi-0.dtd"
   xmlns="http://www.w3.org/2000/svg"
   xmlns:svg="http://www.w3.org/2000/svg">
  <sodipodi:namedview
     id="namedview1"
     pagecolor="#ffffff"
     bordercolor="#000000"
     borderopacity="0.25"
     inkscape:showpageshadow="2"
     inkscape:pageopacity="0.0"
     inkscape:pagecheckerboard="0"
     inkscape:deskcolor="#d1d1d1"
     inkscape:zoom="27.727273"
     inkscape:cx="11"
     inkscape:cy="11"
     inkscape:window-width="1536"
     inkscape:window-height="808"
     inkscape:window-x="0"
     inkscape:window-y="0"
     inkscape:window-maximized="1"
     inkscape:current-layer="svg1" />
  <defs
     id="defs3051">
    <style
       type="text/css"
       id="current-color-scheme">.ColorScheme-Text { color:#232629; }
</style>
  </defs>
  <path
     class="cls-1  ColorScheme-Text"
     d="m 6.2,18.2 v -1.6 h 4 V 14.2 H 4.6 C 4.16,14.2 3.78,14.04 3.47,13.73 3.16,13.42 3,13.04 3,12.6 V 5.4 C 3,4.96 3.16,4.58 3.47,4.27 3.78,3.96 4.16,3.8 4.6,3.8 h 12.8 c 0.44,0 0.82,0.16 1.13,0.47 C 18.84,4.58 19,4.96 19,5.4 v 7.2 c 0,0.44 -0.16,0.82 -0.47,1.13 -0.31,0.31 -0.69,0.47 -1.13,0.47 h -5.6 v 2.4 h 4 v 1.6 z M 4.6,12.6 H 17.4 V 5.4 H 4.6 Z m 0,-7.2 v 7.2 z"
     id="path65"
     style="fill:currentColor" />
</svg>
