<?xml version="1.0" encoding="UTF-8" standalone="no"?>
<svg
   width="22"
   height="22"
   version="1.1"
   id="svg1"
   sodipodi:docname="notifications.svg"
   inkscape:version="1.3.2 (091e20ef0f, 2023-11-25)"
   xmlns:inkscape="http://www.inkscape.org/namespaces/inkscape"
   xmlns:sodipodi="http://sodipodi.sourceforge.net/DTD/sodipodi-0.dtd"
   xmlns="http://www.w3.org/2000/svg"
   xmlns:svg="http://www.w3.org/2000/svg">
  <defs
     id="defs1" />
  <sodipodi:namedview
     id="namedview1"
     pagecolor="#ffffff"
     bordercolor="#000000"
     borderopacity="0.25"
     inkscape:showpageshadow="2"
     inkscape:pageopacity="0.0"
     inkscape:pagecheckerboard="0"
     inkscape:deskcolor="#d1d1d1"
     inkscape:zoom="27.727273"
     inkscape:cx="11"
     inkscape:cy="11"
     inkscape:window-width="1536"
     inkscape:window-height="808"
     inkscape:window-x="0"
     inkscape:window-y="0"
     inkscape:window-maximized="1"
     inkscape:current-layer="svg1" />
  <style
     type="text/css"
     id="current-color-scheme">.ColorScheme-Text { color:#232629; }
</style>
  <path
     class="cls-1  ColorScheme-Text"
     d="M 4.6000001,16.6 V 15 h 1.6 V 9.4 c 0,-1.11 0.33,-2.09 1,-2.95 0.67,-0.86 1.53,-1.42 2.6,-1.69 V 4.2 c 0,-0.33 0.12,-0.62 0.3499999,-0.85 C 10.38,3.12 10.67,3 11,3 c 0.33,0 0.62,0.12 0.85,0.35 0.23,0.23 0.35,0.52 0.35,0.85 v 0.56 c 1.07,0.27 1.93,0.83 2.6,1.69 0.67,0.86 1,1.84 1,2.95 V 15 h 1.6 v 1.6 z m 3.2,-1.6 H 14.2 V 9.4 C 14.2,8.52 13.89,7.77 13.26,7.14 12.63,6.51 11.88,6.2 11,6.2 c -0.88,0 -1.6299999,0.31 -2.2599999,0.94 -0.63,0.63 -0.94,1.38 -0.94,2.26 z M 11,19 c -0.44,0 -0.82,-0.16 -1.1299999,-0.47 -0.31,-0.31 -0.47,-0.69 -0.47,-1.13 H 12.6 c 0,0.44 -0.16,0.82 -0.47,1.13 C 11.82,18.84 11.44,19 11,19 Z"
     id="path61"
     style="fill:currentColor" />
</svg>
