<?xml version="1.0" encoding="UTF-8" standalone="no"?>
<svg
   width="22"
   height="22"
   version="1.1"
   id="svg2"
   sodipodi:docname="notification-inactive.svg"
   inkscape:version="1.3.2 (091e20ef0f, 2023-11-25)"
   xmlns:inkscape="http://www.inkscape.org/namespaces/inkscape"
   xmlns:sodipodi="http://sodipodi.sourceforge.net/DTD/sodipodi-0.dtd"
   xmlns="http://www.w3.org/2000/svg"
   xmlns:svg="http://www.w3.org/2000/svg">
  <defs
     id="defs2" />
  <sodipodi:namedview
     id="namedview2"
     pagecolor="#ffffff"
     bordercolor="#000000"
     borderopacity="0.25"
     inkscape:showpageshadow="2"
     inkscape:pageopacity="0.0"
     inkscape:pagecheckerboard="0"
     inkscape:deskcolor="#d1d1d1"
     inkscape:zoom="27.727273"
     inkscape:cx="11"
     inkscape:cy="11"
     inkscape:window-width="1536"
     inkscape:window-height="808"
     inkscape:window-x="0"
     inkscape:window-y="0"
     inkscape:window-maximized="1"
     inkscape:current-layer="svg2" />
  <style
     type="text/css"
     id="current-color-scheme">
.ColorScheme-Text { 
    color:#232629;
}
.ColorScheme-NegativeText { color:#da4453; }
</style>
  <rect
     class="cls-2"
     x="-1.4440918e-08"
     y="3.0517577e-07"
     width="22"
     height="22"
     id="rect59"
     style="opacity:0;fill:#ffffff;stroke-width:0px" />
  <path
     class="cls-1  ColorScheme-Text"
     d="m 3.4000001,17.65 v -1.9 h 1.9 V 9.1 c 0,-1.318125 0.391875,-2.481875 1.1875,-3.503125 C 7.2831251,4.575625 8.3043751,3.910625 9.575,3.59 V 2.925 C 9.575,2.533125 9.7175,2.18875 9.990625,1.915625 10.26375,1.6425 10.608125,1.5 11,1.5 c 0.391875,0 0.73625,0.1425 1.009375,0.415625 C 12.2825,2.18875 12.425,2.533125 12.425,2.925 V 3.59 c 1.270625,0.320625 2.291875,0.985625 3.0875,2.006875 C 16.308125,6.618125 16.7,7.781875 16.7,9.1 v 6.65 h 1.9 v 1.9 z m 3.8,-1.9 H 14.8 V 9.1 C 14.8,8.055 14.431875,7.164375 13.68375,6.41625 12.935625,5.668125 12.045,5.3 11,5.3 9.955,5.3 9.064375,5.668125 8.3162501,6.41625 7.5681251,7.164375 7.2000001,8.055 7.2000001,9.1 Z M 11,20.5 C 10.4775,20.5 10.02625,20.31 9.658125,19.941875 9.29,19.57375 9.1,19.1225 9.1,18.6 h 3.8 c 0,0.5225 -0.19,0.97375 -0.558125,1.341875 C 11.97375,20.31 11.5225,20.5 11,20.5 Z"
     id="path61"
     style="fill:currentColor" />
</svg>
