<?xml version="1.0" encoding="UTF-8" standalone="no"?>
<svg
   width="22"
   height="22"
   version="1.1"
   id="svg3"
   sodipodi:docname="notification-active.svg"
   inkscape:version="1.3.2 (091e20ef0f, 2023-11-25)"
   xmlns:inkscape="http://www.inkscape.org/namespaces/inkscape"
   xmlns:sodipodi="http://sodipodi.sourceforge.net/DTD/sodipodi-0.dtd"
   xmlns="http://www.w3.org/2000/svg"
   xmlns:svg="http://www.w3.org/2000/svg">
  <defs
     id="defs3" />
  <sodipodi:namedview
     id="namedview3"
     pagecolor="#ffffff"
     bordercolor="#000000"
     borderopacity="0.25"
     inkscape:showpageshadow="2"
     inkscape:pageopacity="0.0"
     inkscape:pagecheckerboard="0"
     inkscape:deskcolor="#d1d1d1"
     inkscape:zoom="27.909091"
     inkscape:cx="11"
     inkscape:cy="11"
     inkscape:window-width="1536"
     inkscape:window-height="812"
     inkscape:window-x="0"
     inkscape:window-y="0"
     inkscape:window-maximized="1"
     inkscape:current-layer="svg3" />
  <style
     type="text/css"
     id="current-color-scheme">.ColorScheme-Text { color:#232629; }
.ColorScheme-NegativeText { color:#da4453; }
</style>
  <path
     class="cls-1  ColorScheme-Text"
     d="M 3.02,9.42 C 3.02,8.09 3.32,6.87 3.91,5.76 4.5,4.65 5.3,3.73 6.29,3 L 7.23,4.28 C 6.43,4.87 5.8,5.6 5.32,6.49 4.85,7.38 4.61,8.36 4.61,9.42 h -1.6 z m 1.6,7.19 v -1.6 h 1.6 V 9.42 c 0,-1.1 0.33,-2.08 1,-2.94 C 7.88,5.62 8.75,5.06 9.81,4.79 V 4.23 c 0,-0.33 0.12,-0.62 0.35,-0.85 0.23,-0.23 0.52,-0.35 0.85,-0.35 0.33,0 0.62,0.12 0.85,0.35 0.23,0.23 0.35,0.52 0.35,0.85 v 0.56 c 1.06,0.27 1.93,0.83 2.59,1.69 0.66,0.86 1,1.84 1,2.94 v 5.59 h 1.6 v 1.6 H 4.63 Z m 3.19,-1.6 h 6.38 V 9.42 C 14.19,8.54 13.88,7.79 13.25,7.17 12.62,6.54 11.87,6.23 11,6.23 10.13,6.23 9.37,6.54 8.75,7.17 8.13,7.8 7.81,8.55 7.81,9.42 Z M 11,19 C 10.56,19 10.18,18.84 9.87,18.53 9.56,18.22 9.4,17.84 9.4,17.4 h 3.19 c 0,0.44 -0.16,0.82 -0.47,1.13 C 11.81,18.84 11.43,19 10.99,19 Z M 17.39,9.42 C 17.39,8.36 17.15,7.38 16.68,6.49 16.21,5.6 15.57,4.86 14.77,4.28 L 15.71,3 c 1,0.73 1.79,1.65 2.38,2.76 0.59,1.11 0.89,2.33 0.89,3.66 h -1.6 z"
     id="path60"
     style="fill:currentColor"
     sodipodi:nodetypes="cscccccccccsccssssscsscccccccscsssccsccscccsccsccc" />
  <path
     d="M 14.2,9.2727885 V 15.01 H 7.526077 V 9.2727885 c 0,-0.9031746 0.3242815,-1.6729257 0.9833052,-2.3092533 0.6590238,-0.6363275 1.4435759,-0.9647547 2.3536558,-0.9647547 0.910081,0 1.705094,0.3181638 2.353657,0.9647547 C 13.875718,7.6101262 14.2,8.3798773 14.2,9.2727885 Z"
     style="fill:currentColor;stroke-width:1.03616"
     id="path1"
     class="ColorScheme-Text" />
</svg>
