<?xml version="1.0" encoding="UTF-8" standalone="no"?>
<svg
   viewBox="0 0 22 22"
   version="1.1"
   id="svg4"
   sodipodi:docname="audio-volume-high-danger.svg"
   inkscape:version="1.3.2 (091e20ef0f, 2023-11-25)"
   xmlns:inkscape="http://www.inkscape.org/namespaces/inkscape"
   xmlns:sodipodi="http://sodipodi.sourceforge.net/DTD/sodipodi-0.dtd"
   xmlns="http://www.w3.org/2000/svg"
   xmlns:svg="http://www.w3.org/2000/svg">
  <defs
     id="defs4" />
  <sodipodi:namedview
     id="namedview4"
     pagecolor="#ffffff"
     bordercolor="#000000"
     borderopacity="0.25"
     inkscape:showpageshadow="2"
     inkscape:pageopacity="0.0"
     inkscape:pagecheckerboard="0"
     inkscape:deskcolor="#d1d1d1"
     inkscape:zoom="27.909091"
     inkscape:cx="11"
     inkscape:cy="9.208469"
     inkscape:window-width="1536"
     inkscape:window-height="812"
     inkscape:window-x="0"
     inkscape:window-y="0"
     inkscape:window-maximized="1"
     inkscape:current-layer="svg4" />
  <style
     id="current-color-scheme"
     type="text/css">.ColorScheme-Text { color:#232629; }
.ColorScheme-NegativeText { color:#da4453; }
</style>
  <path
     class="cls-1  ColorScheme-Text"
     d="M 2.7800019,13.77 V 8.2799998 h 3.66 l 4.5700001,-4.57 V 18.34 L 6.4400019,13.77 Z"
     id="path62"
     style="fill:currentColor;"
     sodipodi:nodetypes="ccccccc" />
  <path
     d="m 12.830002,19 v -1.87 c 1.37,-0.4 2.48,-1.16 3.31,-2.29 0.84,-1.13 1.26,-2.41 1.26,-3.84 0,-1.4300002 -0.42,-2.7100002 -1.26,-3.8400002 -0.84,-1.13 -1.94,-1.89 -3.31,-2.29 v -1.87 c 1.89,0.43 3.43,1.38 4.62,2.87 1.19,1.49 1.78,3.2 1.78,5.1300002 0,1.93 -0.59,3.65 -1.78,5.13 -1.19,1.49 -2.73,2.44 -4.62,2.87 z"
     style="color:#da4453;fill:currentColor"
     id="path1"
     sodipodi:nodetypes="cccssccsscc"
     class="ColorScheme-Text  ColorScheme-NegativeText" />
  <path
     d="M 12.830002,14.68 V 7.3199998 c 0.72,0.34 1.28,0.84 1.68,1.51 0.4,0.67 0.61,1.4000002 0.61,2.1900002 0,0.79 -0.2,1.5 -0.61,2.16 -0.41,0.66 -0.96,1.16 -1.68,1.5 z"
     style="color:#da4453;fill:currentColor"
     id="path1-9"
     class="ColorScheme-Text  ColorScheme-NegativeText" />
</svg>
