<?xml version="1.0" encoding="UTF-8" standalone="no"?>
<svg
   viewBox="0 0 22 22"
   version="1.1"
   id="svg4"
   sodipodi:docname="audio-volume-muted.svg"
   inkscape:version="1.3.2 (091e20ef0f, 2023-11-25)"
   xmlns:inkscape="http://www.inkscape.org/namespaces/inkscape"
   xmlns:sodipodi="http://sodipodi.sourceforge.net/DTD/sodipodi-0.dtd"
   xmlns="http://www.w3.org/2000/svg"
   xmlns:svg="http://www.w3.org/2000/svg">
  <defs
     id="defs4" />
  <sodipodi:namedview
     id="namedview4"
     pagecolor="#ffffff"
     bordercolor="#000000"
     borderopacity="0.25"
     inkscape:showpageshadow="2"
     inkscape:pageopacity="0.0"
     inkscape:pagecheckerboard="0"
     inkscape:deskcolor="#d1d1d1"
     inkscape:zoom="37.102056"
     inkscape:cx="12.34433"
     inkscape:cy="9.1908654"
     inkscape:window-width="1536"
     inkscape:window-height="812"
     inkscape:window-x="0"
     inkscape:window-y="0"
     inkscape:window-maximized="1"
     inkscape:current-layer="g1" />
  <style
     id="current-color-scheme"
     type="text/css">.ColorScheme-Text { color:#232629; }
.ColorScheme-NegativeText { color:#da4453; }
</style>
  <g
     id="g1">
    <path
       class="cls-3  ColorScheme-Text"
       d="m 19.158989,20.5 -2.907875,-2.907875 c -0.395245,0.254086 -0.818722,0.479941 -1.270431,0.663447 -0.451708,0.183507 -0.917533,0.338782 -1.397474,0.437593 v -1.96211 c 0.225855,-0.08469 0.437593,-0.155275 0.663448,-0.23997 0.211738,-0.08469 0.423477,-0.169391 0.606983,-0.282318 l -3.190193,-3.190193 v 4.982912 L 6.8640415,13.20208 H 3.024517 V 7.4427938 H 6.1017829 L 1.4999999,2.8410105 2.8410104,1.5 20.5,19.15899 Z M 11.677563,7.6545317 9.1790493,5.1560179 11.677563,2.6575038 v 4.9829119 z m 7.29792,7.2838043 -1.397474,-1.397474 c 0.268202,-0.494057 0.47994,-1.016345 0.606983,-1.566865 0.141159,-0.536404 0.211739,-1.10104 0.211739,-1.679792 0,-1.4962852 -0.437593,-2.8514113 -1.312779,-4.023031 C 16.208767,5.0995543 15.051263,4.2949481 13.611441,3.8714711 v -1.96211 c 1.976226,0.4517089 3.599554,1.4539376 4.841753,3.0066865 1.242199,1.5527489 1.877415,3.3595843 1.877415,5.3781574 0,0.846954 -0.112927,1.665676 -0.352898,2.442051 -0.23997,0.776374 -0.564635,1.510401 -1.002228,2.187964 z M 15.757058,11.719911 13.597325,9.5601789 V 6.4405647 c 0.748143,0.3528975 1.341011,0.8751858 1.764488,1.5809811 0.423477,0.705795 0.635215,1.4680529 0.635215,2.3008912 0,0.23997 -0.01412,0.47994 -0.05646,0.705795 -0.04235,0.225854 -0.09881,0.465825 -0.183506,0.677563 z m 0.494056,5.872214 c -0.395245,0.254086 -0.818722,0.479941 -1.270431,0.663447 -0.451708,0.183507 -0.917533,0.338782 -1.397474,0.437593 v -1.96211 c 0.225855,-0.08469 0.437593,-0.155275 0.663448,-0.23997 0.211738,-0.08469 0.423477,-0.169391 0.606983,-0.282318 l -3.190193,-3.190193 v 4.982912 L 6.8640415,13.20208 H 3.024517 V 7.4427938 H 6.1017829 M 9.1790493,5.1560179 11.677563,2.6575038 v 4.9829119 z m 8.3989597,8.3848441 c 0.268202,-0.494057 0.47994,-1.016345 0.606983,-1.566865 0.141159,-0.536404 0.211739,-1.10104 0.211739,-1.679792 0,-1.4962852 -0.437593,-2.8514113 -1.312779,-4.023031 C 16.208767,5.0995543 15.051263,4.2949481 13.611441,3.8714711 v -1.96211 c 1.976226,0.4517089 3.599554,1.4539376 4.841753,3.0066865 1.242199,1.5527489 1.877415,3.3595843 1.877415,5.3781574 0,0.846954 -0.112927,1.665676 -0.352898,2.442051 -0.23997,0.776374 -0.564635,1.510401 -1.002228,2.187964 z M 13.597325,9.5601789 V 6.4405647 c 0.748143,0.3528975 1.341011,0.8751858 1.764488,1.5809811 0.423477,0.705795 0.635215,1.4680529 0.635215,2.3008912 0,0.23997 -0.01412,0.47994 -0.05646,0.705795"
       id="path17"
       style="fill:currentColor"
       sodipodi:nodetypes="ccsccccccccccccccccccccccssccssscccccssscc" />
    <path
       d="M 19.158989,20.5 11.663447,13.018574 6.1017829,7.4427938 1.4999999,2.8410105 2.8410104,1.5 20.5,19.15899 Z"
       style="fill:currentColor"
       id="path1-35"
       class="ColorScheme-NegativeText" />
  </g>
</svg>
