<?xml version="1.0" encoding="UTF-8" standalone="no"?>
<svg
   viewBox="0 0 22 22"
   version="1.1"
   id="svg4"
   sodipodi:docname="audio-volume-high.svg"
   inkscape:version="1.3.2 (091e20ef0f, 2023-11-25)"
   xml:space="preserve"
   xmlns:inkscape="http://www.inkscape.org/namespaces/inkscape"
   xmlns:sodipodi="http://sodipodi.sourceforge.net/DTD/sodipodi-0.dtd"
   xmlns="http://www.w3.org/2000/svg"
   xmlns:svg="http://www.w3.org/2000/svg"><defs
     id="defs4" /><sodipodi:namedview
     id="namedview4"
     pagecolor="#ffffff"
     bordercolor="#000000"
     borderopacity="0.25"
     inkscape:showpageshadow="2"
     inkscape:pageopacity="0.0"
     inkscape:pagecheckerboard="0"
     inkscape:deskcolor="#d1d1d1"
     inkscape:zoom="21.839488"
     inkscape:cx="9.7987645"
     inkscape:cy="9.6613987"
     inkscape:window-width="1536"
     inkscape:window-height="812"
     inkscape:window-x="0"
     inkscape:window-y="0"
     inkscape:window-maximized="1"
     inkscape:current-layer="svg4"
     showgrid="false" /><style
     id="current-color-scheme"
     type="text/css">.ColorScheme-Text { color:#232629; }
</style><g
     id="g1"
     transform="matrix(0.97334083,0,0,0.97334083,0.40031836,0.29325106)"><path
       class="cls-1  ColorScheme-Text"
       d="M 2,13.963334 V 8.0366671 H 5.9511115 L 10.889999,3.0977774 V 18.902223 L 5.9511115,13.963334 Z"
       id="path32"
       style="fill:currentColor;stroke-width:0.987782"
       sodipodi:nodetypes="ccccccc" /><path
       d="m 12.865555,19.635793 v -2.019135 c 1.481669,-0.421258 2.672812,-1.249248 3.573432,-2.469444 0.900621,-1.220197 1.350931,-2.60018 1.350931,-4.154477 0,-1.5542976 -0.45031,-2.934281 -1.350931,-4.1399513 -0.90062,-1.2056704 -2.091763,-2.0336606 -3.573432,-2.469445 V 2.3642066 c 2.033661,0.4648366 3.704167,1.496193 4.982468,3.0940689 1.278301,1.5978756 1.931977,3.457222 1.931977,5.5344615 0,2.077238 -0.63915,3.936585 -1.931977,5.548986 -1.278301,1.597876 -2.948807,2.64376 -4.982468,3.09407 z"
       style="fill:currentColor;stroke-width:0.987782"
       id="path1"
       class="ColorScheme-Text" /><path
       d="M 12.865555,14.972901 V 7.0270985 c 0.769887,0.3631543 1.379985,0.9006224 1.815768,1.6269291 0.435785,0.7263065 0.653677,1.5107194 0.653677,2.3677604 0,0.857043 -0.217892,1.612403 -0.653677,2.33871 -0.435784,0.726307 -1.045881,1.249249 -1.815768,1.612403 z"
       style="fill:currentColor;stroke-width:0.987782"
       id="path1-7"
       class="ColorScheme-Text" /></g></svg>
