<?xml version="1.0" encoding="UTF-8" standalone="no"?>
<svg
   height="22"
   width="22"
   version="1.1"
   id="svg2"
   sodipodi:docname="battery-010-charging.svg"
   inkscape:version="1.3.2 (091e20ef0f, 2023-11-25)"
   xmlns:inkscape="http://www.inkscape.org/namespaces/inkscape"
   xmlns:sodipodi="http://sodipodi.sourceforge.net/DTD/sodipodi-0.dtd"
   xmlns="http://www.w3.org/2000/svg"
   xmlns:svg="http://www.w3.org/2000/svg">
  <sodipodi:namedview
     id="namedview2"
     pagecolor="#ffffff"
     bordercolor="#000000"
     borderopacity="0.25"
     inkscape:showpageshadow="2"
     inkscape:pageopacity="0.0"
     inkscape:pagecheckerboard="0"
     inkscape:deskcolor="#d1d1d1"
     inkscape:zoom="27.909091"
     inkscape:cx="11"
     inkscape:cy="11"
     inkscape:window-width="1536"
     inkscape:window-height="812"
     inkscape:window-x="0"
     inkscape:window-y="0"
     inkscape:window-maximized="1"
     inkscape:current-layer="svg2" />
  <defs
     id="defs1">
    <style
       type="text/css"
       id="current-color-scheme">.ColorScheme-NegativeText { color:#da4453; }
.ColorScheme-PositiveText { color:#27ae60; }
</style>
  </defs>
  <g
     id="g72"
     transform="translate(-32.07,-104.86)">
    <path
       class="cls-1  ColorScheme-NegativeText"
       d="m 42.72,119.69 c 0,-0.42 0.07,-0.82 0.16,-1.22 h -6.45 v -5.7 h 12.35 v 1.9 c 1.64,0.31 2.99,1.39 3.68,2.86 h 0.12 v -3.8 h -1.9 v -1.9 c 0,-0.27 -0.09,-0.5 -0.27,-0.68 -0.18,-0.18 -0.41,-0.27 -0.68,-0.27 h -15.2 c -0.27,0 -0.5,0.09 -0.68,0.27 -0.18,0.18 -0.27,0.41 -0.27,0.68 v 7.6 c 0,0.27 0.09,0.5 0.27,0.68 0.18,0.18 0.41,0.27 0.68,0.27 h 8.26 c -0.03,-0.23 -0.07,-0.45 -0.07,-0.68 z"
       id="path72"
       style="fill:currentColor" />
    <polygon
       class="cls-1  ColorScheme-PositiveText"
       points="47.41,123.1 47.41,120.54 45.27,120.54 48.26,116.27 48.26,118.83 50.4,118.83 "
       id="polygon72"
       style="fill:currentColor" />
  </g>
</svg>
