<?xml version="1.0" encoding="UTF-8" standalone="no"?>
<svg
   width="22"
   height="22"
   version="1.1"
   id="svg1"
   sodipodi:docname="network-wireless-80.svg"
   inkscape:version="1.3.2 (091e20ef0f, 2023-11-25)"
   xmlns:inkscape="http://www.inkscape.org/namespaces/inkscape"
   xmlns:sodipodi="http://sodipodi.sourceforge.net/DTD/sodipodi-0.dtd"
   xmlns="http://www.w3.org/2000/svg"
   xmlns:svg="http://www.w3.org/2000/svg">
  <defs
     id="defs1" />
  <sodipodi:namedview
     id="namedview1"
     pagecolor="#ffffff"
     bordercolor="#000000"
     borderopacity="0.25"
     inkscape:showpageshadow="2"
     inkscape:pageopacity="0.0"
     inkscape:pagecheckerboard="0"
     inkscape:deskcolor="#d1d1d1"
     inkscape:zoom="27.727273"
     inkscape:cx="11"
     inkscape:cy="11"
     inkscape:window-width="1536"
     inkscape:window-height="808"
     inkscape:window-x="0"
     inkscape:window-y="0"
     inkscape:window-maximized="1"
     inkscape:current-layer="svg1" />
  <style
     type="text/css"
     id="current-color-scheme">.ColorScheme-Text { color:#31363b; }
.ColorScheme-Background { color:#eff0f1; }
.ColorScheme-Highlight { color:#3498db; }
.ColorScheme-ButtonText { color:#31363b; }
.ColorScheme-NegativeText { color:#e74c3c; }
</style>
  <rect
     class="cls-2"
     x="-3.0517577e-07"
     y="2.8338622e-08"
     width="22"
     height="22"
     id="rect31"
     style="opacity:0;fill:#ffffff;stroke-width:0px"
     inkscape:label="rect31" />
  <path
     class="cls-1  ColorScheme-Text"
     d="M 11,17.73 1.5,8.2300002 c 1.25,-1.28 2.7,-2.26 4.34,-2.94 1.64,-0.68 3.36,-1.02 5.16,-1.02 1.8,0 3.53,0.34 5.17,1.01 1.64,0.67 3.08,1.66 4.33,2.95 z M 4.95,9.4200002 c 0.88,-0.63 1.84,-1.12 2.87,-1.46 1.03,-0.34 2.09,-0.51 3.19,-0.51 1.1,0 2.16,0.17 3.19,0.51 1.03,0.34 1.99,0.83 2.87,1.46 l 1.15,-1.15 c -1.04,-0.79 -2.18,-1.39 -3.4,-1.8 -1.23,-0.41 -2.49,-0.61 -3.8,-0.61 -1.31,0 -2.57,0.2 -3.8,0.61 -1.23,0.41 -2.36,1.01 -3.4,1.8 l 1.15,1.15 z"
     id="path35"
     style="fill:currentColor;stroke-width:0px;" />
</svg>
