<?xml version="1.0" encoding="UTF-8" standalone="no"?>
<svg
   width="22"
   height="22"
   version="1.1"
   id="svg1"
   sodipodi:docname="network-wireless-60-locked.svg"
   xml:space="preserve"
   inkscape:version="1.3.2 (091e20ef0f, 2023-11-25)"
   xmlns:inkscape="http://www.inkscape.org/namespaces/inkscape"
   xmlns:sodipodi="http://sodipodi.sourceforge.net/DTD/sodipodi-0.dtd"
   xmlns="http://www.w3.org/2000/svg"
   xmlns:svg="http://www.w3.org/2000/svg"><defs
     id="defs1" /><sodipodi:namedview
     id="namedview1"
     pagecolor="#ffffff"
     bordercolor="#000000"
     borderopacity="0.25"
     inkscape:showpageshadow="2"
     inkscape:pageopacity="0.0"
     inkscape:pagecheckerboard="0"
     inkscape:deskcolor="#d1d1d1"
     inkscape:zoom="12.537287"
     inkscape:cx="0.19940518"
     inkscape:cy="12.921456"
     inkscape:window-width="1536"
     inkscape:window-height="812"
     inkscape:window-x="0"
     inkscape:window-y="0"
     inkscape:window-maximized="1"
     inkscape:current-layer="svg1"
     inkscape:document-units="px" /><style
     type="text/css"
     id="current-color-scheme">.ColorScheme-Text { color:#31363b; }
.ColorScheme-Background { color:#eff0f1; }
.ColorScheme-Highlight { color:#3498db; }
.ColorScheme-ButtonText { color:#31363b; }
.ColorScheme-NegativeText { color:#e74c3c; }
</style><g
     style="fill:currentColor"
     id="g1"
     transform="matrix(0.02222222,0,0,0.02222157,0.3333344,21.221922)"
     class="ColorScheme-Text"><path
       d="M 480,-120 0,-600 q 96,-98 220,-149 124,-51 260,-51 137,0 261,51 124,51 219,149 l -101,101 q -22,-10 -45,-15 -23,-5 -48,-6 l 78,-78 Q 766,-657 673.5,-688.5 581,-720 480,-720 379,-720 286.5,-688.5 194,-657 116,-598 l 116,116 q 53,-38 116,-59.5 63,-21.5 132,-21.5 56,0 108,14.5 52,14.5 98,40.5 -73,23 -119.5,85.5 Q 520,-360 520,-279 q 0,26 5,50.5 5,24.5 16,47.5 z m 200,0 q -17,0 -28.5,-11.5 Q 640,-143 640,-160 v -120 q 0,-17 11.5,-28.5 Q 663,-320 680,-320 v -40 q 0,-33 23.5,-56.5 23.5,-23.5 56.5,-23.5 33,0 56.5,23.5 23.5,23.5 23.5,56.5 v 40 q 17,0 28.5,11.5 11.5,11.5 11.5,28.5 v 120 q 0,17 -11.5,28.5 Q 857,-120 840,-120 Z m 40,-200 h 80 v -40 q 0,-17 -11.5,-28.5 Q 777,-400 760,-400 q -17,0 -28.5,11.5 Q 720,-377 720,-360 Z"
       id="path1" /></g></svg>
