<?xml version="1.0" encoding="UTF-8" standalone="no"?>
<svg
   width="22"
   height="22"
   version="1.1"
   id="svg1"
   sodipodi:docname="network-wireless-40.svg"
   inkscape:version="1.3.2 (091e20ef0f, 2023-11-25)"
   xmlns:inkscape="http://www.inkscape.org/namespaces/inkscape"
   xmlns:sodipodi="http://sodipodi.sourceforge.net/DTD/sodipodi-0.dtd"
   xmlns="http://www.w3.org/2000/svg"
   xmlns:svg="http://www.w3.org/2000/svg">
  <defs
     id="defs1" />
  <sodipodi:namedview
     id="namedview1"
     pagecolor="#ffffff"
     bordercolor="#000000"
     borderopacity="0.25"
     inkscape:showpageshadow="2"
     inkscape:pageopacity="0.0"
     inkscape:pagecheckerboard="0"
     inkscape:deskcolor="#d1d1d1"
     inkscape:zoom="27.727273"
     inkscape:cx="11"
     inkscape:cy="11"
     inkscape:window-width="1536"
     inkscape:window-height="808"
     inkscape:window-x="0"
     inkscape:window-y="0"
     inkscape:window-maximized="1"
     inkscape:current-layer="svg1" />
  <style
     type="text/css"
     id="current-color-scheme">.ColorScheme-Text { color:#31363b; }
.ColorScheme-Background { color:#eff0f1; }
.ColorScheme-Highlight { color:#3498db; }
.ColorScheme-ButtonText { color:#31363b; }
.ColorScheme-NegativeText { color:#e74c3c; }
</style>
  <path
     class="cls-1  ColorScheme-Text"
     d="m 11.000001,17.73 -9.5,-9.4999998 c 1.27,-1.29 2.72,-2.28 4.35,-2.95 1.64,-0.67 3.35,-1.01 5.15,-1.01 1.8,0 3.53,0.34 5.17,1.01 1.64,0.67 3.08,1.66 4.33,2.95 z m -3.59,-5.84 c 0.5,-0.37 1.06,-0.66 1.66,-0.86 0.61,-0.2 1.25,-0.31 1.92,-0.31 0.67,0 1.31,0.1 1.92,0.31 0.61,0.21 1.16,0.49 1.66,0.86 l 3.62,-3.6199998 c -1.03,-0.78 -2.15,-1.38 -3.37,-1.79 -1.22,-0.42 -2.5,-0.62 -3.83,-0.62 -1.33,0 -2.61,0.21 -3.83,0.62 -1.22,0.42 -2.35,1.01 -3.37,1.79 z"
     id="path33"
     style="fill:currentColor" />
</svg>
