<?xml version="1.0" encoding="UTF-8" standalone="no"?>
<svg
   viewBox="0 0 16 16"
   version="1.1"
   id="svg1"
   sodipodi:docname="dashboard-show.svg"
   inkscape:version="1.3.2 (091e20ef0f, 2023-11-25)"
   xmlns:inkscape="http://www.inkscape.org/namespaces/inkscape"
   xmlns:sodipodi="http://sodipodi.sourceforge.net/DTD/sodipodi-0.dtd"
   xmlns="http://www.w3.org/2000/svg"
   xmlns:svg="http://www.w3.org/2000/svg">
  <sodipodi:namedview
     id="namedview1"
     pagecolor="#ffffff"
     bordercolor="#000000"
     borderopacity="0.25"
     inkscape:showpageshadow="2"
     inkscape:pageopacity="0.0"
     inkscape:pagecheckerboard="0"
     inkscape:deskcolor="#d1d1d1"
     inkscape:zoom="38.125"
     inkscape:cx="8"
     inkscape:cy="8"
     inkscape:window-width="1536"
     inkscape:window-height="808"
     inkscape:window-x="0"
     inkscape:window-y="0"
     inkscape:window-maximized="1"
     inkscape:current-layer="svg1" />
  <defs
     id="defs3051">
    <style
       type="text/css"
       id="current-color-scheme">.ColorScheme-Text { color:#232629; }
</style>
  </defs>
  <path
     class="cls-1  ColorScheme-Text"
     d="M 4.5090874,13.236364 V 12.072727 H 7.4181782 V 10.327273 H 3.345451 c -0.32,0 -0.5963636,-0.116364 -0.8218181,-0.3418185 C 2.2981783,9.76 2.1818147,9.4836364 2.1818147,9.1636364 V 3.9272727 c 0,-0.32 0.1163636,-0.5963636 0.3418182,-0.8218182 C 2.7490874,2.88 3.025451,2.7636364 3.345451,2.7636364 h 9.309091 c 0.32,0 0.596363,0.1163636 0.821818,0.3418182 0.225454,0.2254545 0.341818,0.5018181 0.341818,0.8218181 v 5.2363637 c 0,0.32 -0.116364,0.5963636 -0.341818,0.8218181 -0.225455,0.2254545 -0.501818,0.3418185 -0.821818,0.3418185 H 8.5818142 v 1.745454 h 2.9090908 v 1.163637 z M 3.345451,9.1636364 h 9.309091 V 3.9272727 H 3.345451 Z m 0,-5.2363637 v 5.2363637 z"
     id="path65"
     style="fill:currentColor" />
</svg>
