<?xml version="1.0" encoding="UTF-8" standalone="no"?>
<svg
   version="1.1"
   viewBox="0 0 16 16"
   id="svg1"
   sodipodi:docname="notifications.svg"
   inkscape:version="1.3.2 (091e20ef0f, 2023-11-25)"
   xmlns:inkscape="http://www.inkscape.org/namespaces/inkscape"
   xmlns:sodipodi="http://sodipodi.sourceforge.net/DTD/sodipodi-0.dtd"
   xmlns="http://www.w3.org/2000/svg"
   xmlns:svg="http://www.w3.org/2000/svg">
  <defs
     id="defs1" />
  <sodipodi:namedview
     id="namedview1"
     pagecolor="#ffffff"
     bordercolor="#000000"
     borderopacity="0.25"
     inkscape:showpageshadow="2"
     inkscape:pageopacity="0.0"
     inkscape:pagecheckerboard="0"
     inkscape:deskcolor="#d1d1d1"
     inkscape:zoom="38.125"
     inkscape:cx="8"
     inkscape:cy="8"
     inkscape:window-width="1536"
     inkscape:window-height="808"
     inkscape:window-x="0"
     inkscape:window-y="0"
     inkscape:window-maximized="1"
     inkscape:current-layer="svg1" />
  <style
     id="current-color-scheme"
     type="text/css">.ColorScheme-Text { color:#232629; }
</style>
  <rect
     class="cls-2"
     x="0"
     y="0"
     width="16"
     height="16"
     id="rect59"
     style="opacity:0;fill:#ffffff;stroke-width:0px" />
  <path
     class="cls-1  ColorScheme-Text"
     d="M 3.3454546,12.072727 V 10.909091 H 4.509091 V 6.8363635 c 0,-0.8072727 0.24,-1.52 0.7272727,-2.1454546 C 5.7236364,4.0654544 6.349091,3.6581817 7.1272728,3.461818 V 3.0545453 c 0,-0.24 0.087273,-0.4509091 0.2545454,-0.6181818 C 7.5490909,2.2690908 7.76,2.181818 8,2.181818 c 0.24,0 0.4509091,0.087273 0.6181818,0.2545455 0.1672727,0.1672727 0.2545455,0.3781818 0.2545455,0.6181818 V 3.461818 c 0.7781818,0.1963637 1.4036367,0.6036364 1.8909087,1.2290909 0.487273,0.6254546 0.727273,1.3381819 0.727273,2.1454546 v 4.0727275 h 1.163636 v 1.163636 z M 5.6727273,10.909091 H 10.327273 V 6.8363635 c 0,-0.64 -0.225455,-1.1854546 -0.6836366,-1.6436364 C 9.1854545,4.7345453 8.64,4.5090908 8,4.5090908 c -0.64,0 -1.1854545,0.2254545 -1.6436363,0.6836363 C 5.8981819,5.6509089 5.6727273,6.1963635 5.6727273,6.8363635 Z M 8,13.818182 c -0.32,0 -0.5963636,-0.116364 -0.8218181,-0.341818 C 6.9527273,13.250909 6.8363637,12.974545 6.8363637,12.654545 h 2.3272727 c 0,0.32 -0.1163637,0.596364 -0.3418182,0.821819 C 8.5963636,13.701818 8.32,13.818182 8,13.818182 Z"
     id="path61"
     style="fill:currentColor" />
</svg>
