<?xml version="1.0" encoding="UTF-8" standalone="no"?>
<svg
   height="32"
   width="32"
   version="1.1"
   id="svg2"
   sodipodi:docname="battery-070.svg"
   inkscape:version="1.3.2 (091e20ef0f, 2023-11-25)"
   xmlns:inkscape="http://www.inkscape.org/namespaces/inkscape"
   xmlns:sodipodi="http://sodipodi.sourceforge.net/DTD/sodipodi-0.dtd"
   xmlns="http://www.w3.org/2000/svg"
   xmlns:svg="http://www.w3.org/2000/svg">
  <defs
     id="defs2" />
  <sodipodi:namedview
     id="namedview2"
     pagecolor="#ffffff"
     bordercolor="#000000"
     borderopacity="0.25"
     inkscape:showpageshadow="2"
     inkscape:pageopacity="0.0"
     inkscape:pagecheckerboard="0"
     inkscape:deskcolor="#d1d1d1"
     inkscape:zoom="19.1875"
     inkscape:cx="16"
     inkscape:cy="16"
     inkscape:window-width="1536"
     inkscape:window-height="812"
     inkscape:window-x="0"
     inkscape:window-y="0"
     inkscape:window-maximized="1"
     inkscape:current-layer="svg2" />
  <style
     type="text/css"
     id="current-color-scheme">.ColorScheme-Text { color:#232629; }
</style>
  <path
     class="cls-1  ColorScheme-Text"
     d="m 2.1818,10.472726 c 0,-0.392727 0.13091,-0.727273 0.39273,-0.989091 C 2.83635,9.221817 3.17089,9.090908 3.56362,9.090908 h 22.10909 c 0.39273,0 0.72728,0.130909 0.98909,0.392727 0.26182,0.261818 0.39273,0.596364 0.39273,0.989091 v 2.763636 h 2.76364 v 5.527277 h -2.76364 v 2.76363 c 0,0.39273 -0.13091,0.72728 -0.39273,0.98909 -0.26181,0.26182 -0.59636,0.39273 -0.98909,0.39273 H 3.56362 c -0.39273,0 -0.72727,-0.13091 -0.98909,-0.39273 -0.26182,-0.26181 -0.39273,-0.59636 -0.39273,-0.98909 z m 13.81819,1.381818 v 8.290905 h 8.2909 v -8.290905 z"
     id="path52"
     style="fill:currentColor" />
</svg>
