<?xml version="1.0" encoding="UTF-8" standalone="no"?>
<svg
   height="32"
   width="32"
   version="1.1"
   id="svg3"
   sodipodi:docname="battery-080-charging.svg"
   inkscape:version="1.3.2 (091e20ef0f, 2023-11-25)"
   xmlns:inkscape="http://www.inkscape.org/namespaces/inkscape"
   xmlns:sodipodi="http://sodipodi.sourceforge.net/DTD/sodipodi-0.dtd"
   xmlns="http://www.w3.org/2000/svg"
   xmlns:svg="http://www.w3.org/2000/svg">
  <defs
     id="defs3" />
  <sodipodi:namedview
     id="namedview3"
     pagecolor="#ffffff"
     bordercolor="#000000"
     borderopacity="0.25"
     inkscape:showpageshadow="2"
     inkscape:pageopacity="0.0"
     inkscape:pagecheckerboard="0"
     inkscape:deskcolor="#d1d1d1"
     inkscape:zoom="19.1875"
     inkscape:cx="16"
     inkscape:cy="16"
     inkscape:window-width="1536"
     inkscape:window-height="812"
     inkscape:window-x="0"
     inkscape:window-y="0"
     inkscape:window-maximized="1"
     inkscape:current-layer="svg3" />
  <style
     type="text/css"
     id="current-color-scheme">.ColorScheme-Text { color:#232629; }
.ColorScheme-PositiveText { color:#27ae60; }
</style>
  <g
     id="g69"
     transform="matrix(1.4545455,0,0,1.4545455,-328.23272,-152.52364)">
    <path
       class="cls-1  ColorScheme-Text"
       d="m 236.02,119.69 c 0,-1.88 1.03,-3.51 2.54,-4.4 v -2.52 h 3.8 v 1.96 c 1.51,0.37 2.75,1.41 3.4,2.79 h 0.4 v -3.8 h -1.9 v -1.9 c 0,-0.27 -0.09,-0.5 -0.27,-0.68 -0.18,-0.18 -0.41,-0.27 -0.68,-0.27 h -15.2 c -0.27,0 -0.5,0.09 -0.68,0.27 -0.18,0.18 -0.27,0.41 -0.27,0.68 v 7.6 c 0,0.27 0.09,0.5 0.27,0.68 0.18,0.18 0.41,0.27 0.68,0.27 h 7.98 c -0.03,-0.23 -0.07,-0.45 -0.07,-0.68 z"
       id="path69"
       style="fill:currentColor" />
    <polygon
       class="cls-1  ColorScheme-PositiveText"
       points="240.71,120.54 238.57,120.54 241.56,116.27 241.56,118.83 243.7,118.83 240.71,123.1 "
       id="polygon69"
       style="fill:currentColor" />
  </g>
</svg>
