<?xml version="1.0" encoding="UTF-8" standalone="no"?>
<svg
   height="32"
   width="32"
   version="1.1"
   id="svg2"
   sodipodi:docname="battery-020.svg"
   inkscape:version="1.3.2 (091e20ef0f, 2023-11-25)"
   xmlns:inkscape="http://www.inkscape.org/namespaces/inkscape"
   xmlns:sodipodi="http://sodipodi.sourceforge.net/DTD/sodipodi-0.dtd"
   xmlns="http://www.w3.org/2000/svg"
   xmlns:svg="http://www.w3.org/2000/svg">
  <defs
     id="defs2" />
  <sodipodi:namedview
     id="namedview2"
     pagecolor="#ffffff"
     bordercolor="#000000"
     borderopacity="0.25"
     inkscape:showpageshadow="2"
     inkscape:pageopacity="0.0"
     inkscape:pagecheckerboard="0"
     inkscape:deskcolor="#d1d1d1"
     inkscape:zoom="19.0625"
     inkscape:cx="16"
     inkscape:cy="16"
     inkscape:window-width="1536"
     inkscape:window-height="808"
     inkscape:window-x="0"
     inkscape:window-y="0"
     inkscape:window-maximized="1"
     inkscape:current-layer="svg2" />
  <style
     type="text/css"
     id="current-color-scheme">.ColorScheme-Text { color:#232629; }
</style>
  <path
     class="cls-1  ColorScheme-Text"
     d="m 2.1818211,10.472726 c 0,-0.392727 0.1309091,-0.7272725 0.3927273,-0.9890905 0.2618181,-0.261818 0.5963636,-0.392727 0.9890909,-0.392727 H 25.67273 c 0.392727,0 0.727273,0.130909 0.989091,0.392727 0.261818,0.261818 0.392727,0.5963635 0.392727,0.9890905 v 2.763636 h 2.763637 v 5.527273 h -2.763637 v 2.763636 c 0,0.392728 -0.130909,0.727273 -0.392727,0.989091 -0.261818,0.261819 -0.596364,0.392728 -0.989091,0.392728 H 3.5636393 c -0.3927273,0 -0.7272728,-0.130909 -0.9890909,-0.392728 C 2.3127302,22.254544 2.1818211,21.919999 2.1818211,21.527271 Z m 5.5272729,1.381818 v 8.290909 h 16.581818 v -8.290909 z"
     id="path49"
     style="stroke-width:0px;fill:currentColor" />
</svg>
