<?xml version="1.0" encoding="UTF-8" standalone="no"?>
<svg
   height="32"
   width="32"
   version="1.1"
   id="svg2"
   sodipodi:docname="battery-000-charging.svg"
   inkscape:version="1.3.2 (091e20ef0f, 2023-11-25)"
   xmlns:inkscape="http://www.inkscape.org/namespaces/inkscape"
   xmlns:sodipodi="http://sodipodi.sourceforge.net/DTD/sodipodi-0.dtd"
   xmlns="http://www.w3.org/2000/svg"
   xmlns:svg="http://www.w3.org/2000/svg">
  <defs
     id="defs2" />
  <sodipodi:namedview
     id="namedview2"
     pagecolor="#ffffff"
     bordercolor="#000000"
     borderopacity="0.25"
     inkscape:showpageshadow="2"
     inkscape:pageopacity="0.0"
     inkscape:pagecheckerboard="0"
     inkscape:deskcolor="#d1d1d1"
     inkscape:zoom="19.0625"
     inkscape:cx="16"
     inkscape:cy="16"
     inkscape:window-width="1536"
     inkscape:window-height="808"
     inkscape:window-x="0"
     inkscape:window-y="0"
     inkscape:window-maximized="1"
     inkscape:current-layer="g77" />
  <style
     type="text/css"
     id="current-color-scheme">.ColorScheme-PositiveText { color:#27ae60; }
.ColorScheme-NegativeText { color:#da4453; }
</style>
  <g
     id="g77"
     transform="matrix(1.4545455,0,0,1.4545455,-9.6290908,-152.52364)">
    <path
       class="cls-1  ColorScheme-NegativeText"
       d="m 17.07,120.13 c 0,-0.42 0.07,-0.82 0.16,-1.22 h -7.22 v -5.7 h 13.3 v 1.93 c 1.55,0.35 2.83,1.41 3.49,2.82 h 0.31 v -3.8 h -1.9 v -1.9 c 0,-0.27 -0.09,-0.5 -0.27,-0.68 -0.18,-0.18 -0.41,-0.27 -0.68,-0.27 H 9.06 c -0.27,0 -0.5,0.09 -0.68,0.27 -0.18,0.18 -0.27,0.41 -0.27,0.68 v 7.6 c 0,0.27 0.09,0.5 0.27,0.68 0.18,0.18 0.41,0.27 0.68,0.27 h 8.07 c -0.03,-0.23 -0.07,-0.45 -0.07,-0.68 z"
       id="path77"
       style="fill:currentColor;" />
    <polygon
       class="cls-1  ColorScheme-PositiveText"
       points="22.62,119.28 24.75,119.28 21.76,123.55 21.76,120.99 19.63,120.99 22.62,116.71 "
       id="polygon77"
       style="fill:currentColor" />
  </g>
</svg>
